# xmcd
#
# Track frame offsets:
#	150
#	18337
#	33017
#	48132
#	62830
#	78819
#	94655
#	108150
#	119631
#	138396
#	154418
#	167456
#	181950
#	198382
#	210355
#	230074
#	251494
#	267205
#	282122
#	301786
#	320904
#
# Disc length: 4511 seconds
#
# Revision: 1
# Processed by: cddbd v1.5.2PL0 Copyright (c) Steve Scherf et al.
# Submitted via: audiograbber 1.83.01
#
DISCID=16119d15
DTITLE=Bellamy Brothers - The Anthology Vol.2
DYEAR=2010
DGENRE=Country
TTITLE0=Back In The Day
TTITLE1=Get Into Reggae Cowboy
TTITLE2=Lovers Live Longer
TTITLE3=Jalapenos
TTITLE4=Forget About Me
TTITLE5=I'd Lie To You For Your Love
TTITLE6=Strung Out
TTITLE7=Country Rap
TTITLE8=World's Greatest Lover
TTITLE9=Rip Off The Knob
TTITLE10=Love By The Moon
TTITLE11=I Could Be Persuaded
TTITLE12=Crossfire
TTITLE13=Up And Away
TTITLE14=She Don't Know That She's Perfect
TTITLE15=Where's Your Brother
TTITLE16=Cowboy Beat
TTITLE17=I Love Her Mind
TTITLE18=Lost In Ireland
TTITLE19=She's Awesome
TTITLE20=Jalapenos (Rowdy Alternative Version)
EXTD=
EXTT0=
EXTT1=
EXTT2=
EXTT3=
EXTT4=
EXTT5=
EXTT6=
EXTT7=
EXTT8=
EXTT9=
EXTT10=
EXTT11=
EXTT12=
EXTT13=
EXTT14=
EXTT15=
EXTT16=
EXTT17=
EXTT18=
EXTT19=
EXTT20=
PLAYORDER=
